<svg width="24" height="24" viewBox="0 0 24 24" fill="none" xmlns="http://www.w3.org/2000/svg">
<path d="M7.5 7.03259C7.5 6.50303 7.6164 5.97864 7.84254 5.48939C8.06869 5.00013 8.40016 4.55558 8.81802 4.18112C9.23588 3.80666 9.73196 3.50962 10.2779 3.30696C10.8239 3.10431 11.4091 3 12 3C12.5909 3 13.1761 3.10431 13.7221 3.30696C14.268 3.50962 14.7641 3.80666 15.182 4.18112C15.5998 4.55558 15.9313 5.00013 16.1575 5.48939C16.3836 5.97864 16.5 6.50303 16.5 7.03259" stroke="#0095FF" stroke-width="1.5"/>
<path d="M3 7.03259H21M5 7.03259V12.1759C5 13.7509 5.22159 15.318 5.65815 16.8303C6.26017 18.9158 7.99345 20.4696 10.1183 20.8287L10.276 20.8553C11.4174 21.0482 12.5826 21.0482 13.724 20.8553L13.8817 20.8287C16.0065 20.4696 17.7398 18.9158 18.3418 16.8303C18.7784 15.318 19 13.7509 19 12.1758V7.03259H5Z" stroke="#363853" stroke-width="1.5" stroke-linecap="round"/>
<path d="M10 12V16M14 12V16" stroke="#0095FF" stroke-width="1.5" stroke-linecap="round"/>
</svg>
