<svg width="24" height="24" viewBox="0 0 24 24" fill="none" xmlns="http://www.w3.org/2000/svg">
<path d="M5 7.03259H19V12.1758C19 13.7509 18.7784 15.318 18.3418 16.8303C17.7398 18.9158 16.0065 20.4696 13.8817 20.8287L13.724 20.8553C12.5826 21.0482 11.4174 21.0482 10.276 20.8553L10.1183 20.8287C7.99345 20.4696 6.26017 18.9158 5.65815 16.8303C5.22159 15.318 5 13.7509 5 12.1759V7.03259Z" fill="#363853" fill-opacity="0.15"/>
<path d="M3 6.28259C2.58579 6.28259 2.25 6.61838 2.25 7.03259C2.25 7.44681 2.58579 7.78259 3 7.78259V6.28259ZM21 7.78259C21.4142 7.78259 21.75 7.44681 21.75 7.03259C21.75 6.61838 21.4142 6.28259 21 6.28259V7.78259ZM5 7.03259V6.28259H4.25V7.03259H5ZM19 7.03259H19.75V6.28259H19V7.03259ZM18.3418 16.8303L19.0624 17.0383L18.3418 16.8303ZM13.724 20.8553L13.8489 21.5949L13.724 20.8553ZM10.276 20.8553L10.401 20.1158L10.401 20.1158L10.276 20.8553ZM10.1183 20.8287L9.9933 21.5682H9.9933L10.1183 20.8287ZM5.65815 16.8303L4.93757 17.0383L5.65815 16.8303ZM13.8817 20.8287L13.7568 20.0892L13.8817 20.8287ZM7.84254 5.48939L8.52333 5.80406L7.84254 5.48939ZM8.81802 4.18112L8.31749 3.62258V3.62258L8.81802 4.18112ZM10.2779 3.30696L10.5389 4.01009L10.2779 3.30696ZM13.7221 3.30696L13.9831 2.60384V2.60384L13.7221 3.30696ZM16.1575 5.48939L16.8383 5.17471L16.1575 5.48939ZM3 7.78259H21V6.28259H3V7.78259ZM13.7568 20.0892L13.599 20.1158L13.8489 21.5949L14.0067 21.5682L13.7568 20.0892ZM10.401 20.1158L10.2432 20.0892L9.9933 21.5682L10.151 21.5949L10.401 20.1158ZM18.25 7.03259V12.1758H19.75V7.03259H18.25ZM5.75 12.1759V7.03259H4.25V12.1759H5.75ZM18.25 12.1758C18.25 13.6806 18.0383 15.1776 17.6212 16.6223L19.0624 17.0383C19.5185 15.4583 19.75 13.8212 19.75 12.1758H18.25ZM13.599 20.1158C12.5404 20.2947 11.4596 20.2947 10.401 20.1158L10.151 21.5949C11.3751 21.8017 12.6248 21.8017 13.8489 21.5949L13.599 20.1158ZM10.2432 20.0892C8.40523 19.7786 6.90157 18.4335 6.37873 16.6223L4.93757 17.0383C5.61878 19.3981 7.58166 21.1607 9.9933 21.5682L10.2432 20.0892ZM6.37873 16.6223C5.9617 15.1776 5.75 13.6806 5.75 12.1759H4.25C4.25 13.8212 4.48148 15.4583 4.93757 17.0383L6.37873 16.6223ZM14.0067 21.5682C16.4183 21.1607 18.3812 19.3981 19.0624 17.0383L17.6212 16.6223C17.0984 18.4335 15.5947 19.7786 13.7568 20.0892L14.0067 21.5682ZM8.25 7.03259C8.25 6.61367 8.34194 6.19649 8.52333 5.80406L7.16175 5.17471C6.89085 5.76079 6.75 6.39238 6.75 7.03259H8.25ZM8.52333 5.80406C8.70487 5.41133 8.97357 5.04881 9.31855 4.73966L8.31749 3.62258C7.82675 4.06235 7.43251 4.58893 7.16175 5.17471L8.52333 5.80406ZM9.31855 4.73966C9.66369 4.43037 10.0778 4.18126 10.5389 4.01009L10.0169 2.60384C9.38616 2.83798 8.80808 3.18295 8.31749 3.62258L9.31855 4.73966ZM10.5389 4.01009C11.0001 3.8389 11.4968 3.75 12 3.75V2.25C11.3213 2.25 10.6477 2.36972 10.0169 2.60384L10.5389 4.01009ZM12 3.75C12.5032 3.75 12.9999 3.8389 13.4611 4.01009L13.9831 2.60384C13.3523 2.36972 12.6787 2.25 12 2.25V3.75ZM13.4611 4.01009C13.9222 4.18126 14.3363 4.43037 14.6815 4.73966L15.6825 3.62258C15.1919 3.18295 14.6138 2.83798 13.9831 2.60384L13.4611 4.01009ZM14.6815 4.73966C15.0264 5.04881 15.2951 5.41133 15.4767 5.80407L16.8383 5.17471C16.5675 4.58893 16.1733 4.06235 15.6825 3.62258L14.6815 4.73966ZM15.4767 5.80406C15.6581 6.19649 15.75 6.61367 15.75 7.03259H17.25C17.25 6.39238 17.1092 5.7608 16.8383 5.17471L15.4767 5.80406ZM5 7.78259H19V6.28259H5V7.78259Z" fill="#363853"/>
<path d="M10 12V16M14 12V16" stroke="#363853" stroke-width="1.5" stroke-linecap="round"/>
</svg>
