<svg width="27" height="30" viewBox="0 0 27 30" fill="none" xmlns="http://www.w3.org/2000/svg">
<path d="M22.5 12.5724C22.5 15.1472 19.9331 18.6368 18.2647 22.2353C16.6417 25.736 15.951 29.3824 13.5 29.3824C10.866 29.3824 10.3812 26.0882 8.73529 22.2353C7.27532 18.8176 4.5 14.9602 4.5 12.5724C4.5 7.49282 8.52944 3.375 13.5 3.375C18.4706 3.375 22.5 7.49282 22.5 12.5724Z" fill="#F05945" fill-opacity="0.15"/>
<path d="M18.2647 22.2353L18.7183 22.4456L18.2647 22.2353ZM8.73529 22.2353L9.1951 22.0389L8.73529 22.2353ZM5 12.5724C5 7.75868 8.81575 3.875 13.5 3.875V2.875C8.24312 2.875 4 7.22697 4 12.5724H5ZM13.5 3.875C18.1842 3.875 22 7.75868 22 12.5724H23C23 7.22697 18.7569 2.875 13.5 2.875V3.875ZM22 12.5724C22 13.7235 21.4176 15.1396 20.5639 16.7903C19.7363 18.3906 18.6485 20.2189 17.8111 22.025L18.7183 22.4456C19.5494 20.6532 20.5792 18.9375 21.4521 17.2497C22.299 15.6122 23 13.9961 23 12.5724H22ZM17.8111 22.025C17.3982 22.9154 17.0453 23.8137 16.7155 24.6443C16.3828 25.482 16.0757 26.2449 15.7466 26.896C15.0736 28.2275 14.413 28.8824 13.5 28.8824V29.8824C15.038 29.8824 15.9482 28.714 16.6391 27.3471C16.9919 26.6491 17.315 25.844 17.6449 25.0134C17.9776 24.1757 18.3196 23.3055 18.7183 22.4456L17.8111 22.025ZM13.5 28.8824C12.9591 28.8824 12.5483 28.7179 12.1964 28.4238C11.8305 28.118 11.5086 27.6552 11.1938 27.0291C10.8796 26.4042 10.5911 25.6558 10.272 24.8024C9.95582 23.9566 9.61218 23.0153 9.1951 22.0389L8.27549 22.4317C8.68134 23.3818 9.0155 24.2971 9.33538 25.1526C9.6524 26.0005 9.95834 26.798 10.3004 27.4783C10.6418 28.1573 11.0378 28.7588 11.5551 29.1911C12.0863 29.6351 12.7239 29.8824 13.5 29.8824V28.8824ZM9.1951 22.0389C8.45558 20.3077 7.37345 18.4449 6.51403 16.7875C6.07856 15.9476 5.6968 15.1555 5.42432 14.4326C5.14992 13.7046 5 13.0814 5 12.5724H4C4 13.2573 4.197 14.0117 4.48859 14.7853C4.7821 15.564 5.18543 16.3976 5.62628 17.2478C6.51952 18.9704 7.55503 20.7452 8.27549 22.4317L9.1951 22.0389Z" fill="#FC8059"/>
<path d="M10.6875 11.8125C10.6875 10.2592 11.9467 9 13.5 9C15.0533 9 16.3125 10.2592 16.3125 11.8125C16.3125 13.3658 15.0533 14.625 13.5 14.625C11.9467 14.625 10.6875 13.3658 10.6875 11.8125Z" stroke="#FC8059"/>
</svg>
